<svg width="54" height="54" viewBox="0 0 54 54" fill="none" xmlns="http://www.w3.org/2000/svg">
<path d="M51.9364 15.9868H43.8055C45.5643 19.0343 46.2683 22.5771 45.8082 26.0655C45.3481 29.554 43.7496 32.7931 41.2608 35.2804C39.1332 37.4504 36.3638 39.5057 33.3071 41.4011C33.1158 41.5175 32.8909 41.5663 32.6686 41.5396C32.4462 41.5129 32.2393 41.4122 32.081 41.2537L23.3807 32.5534C23.1914 32.3641 22.9661 32.2147 22.718 32.1142C22.4699 32.0137 22.2041 31.9641 21.9365 31.9683C21.6689 31.9725 21.4048 32.0304 21.16 32.1386C20.9152 32.2469 20.6946 32.4032 20.5114 32.5983C20.1588 32.9939 19.9726 33.5103 19.9917 34.0398C20.0108 34.5693 20.2336 35.071 20.6138 35.4402L28.0755 42.9019C28.1869 43.0131 28.2705 43.1492 28.3194 43.2989C28.3682 43.4486 28.381 43.6077 28.3567 43.7633C28.3323 43.9189 28.2715 44.0665 28.1793 44.1941C28.087 44.3217 27.9659 44.4257 27.8257 44.4976C17.9093 49.6469 7.23612 53.0806 5.68284 53.565C4.9398 53.9112 4.10827 54.0204 3.30103 53.878C2.49379 53.7355 1.7499 53.3481 1.17028 52.7685C0.590646 52.1889 0.203321 51.445 0.0608309 50.6378C-0.0816587 49.8305 0.0275838 48.999 0.373742 48.2559C1.05548 46.0809 7.61569 25.7135 16.5707 14.9554C16.6597 14.849 16.7699 14.7623 16.8943 14.7008C17.0187 14.6393 17.1545 14.6043 17.2931 14.5982C17.4317 14.5921 17.5701 14.615 17.6994 14.6653C17.8287 14.7156 17.9461 14.7923 18.0441 14.8905L28.5449 25.3938C28.7392 25.588 28.9713 25.7399 29.2269 25.8403C29.4825 25.9407 29.756 25.9873 30.0305 25.9772C30.3049 25.9671 30.5743 25.9006 30.8218 25.7817C31.0693 25.6629 31.2897 25.4943 31.4692 25.2865C31.7974 24.8903 31.9643 24.3849 31.9366 23.8712C31.9088 23.3574 31.6884 22.873 31.3194 22.5145L20.9908 12.186C20.8855 12.0811 20.8049 11.9541 20.7549 11.8141C20.705 11.6741 20.6869 11.5248 20.7019 11.3769C20.717 11.229 20.7649 11.0864 20.8421 10.9594C20.9193 10.8324 21.0238 10.7242 21.1482 10.6427C23.6259 9.00718 26.5103 8.0941 29.4779 8.00589C32.4454 7.91767 35.379 8.6578 37.9495 10.1433V2.00234C37.9489 1.72824 38.0046 1.45695 38.1134 1.20534C38.2221 0.953727 38.3814 0.727181 38.5815 0.539793C38.7815 0.352405 39.018 0.208185 39.2761 0.116105C39.5343 0.0240247 39.8086 -0.0139453 40.0821 0.0045569C40.5969 0.0493437 41.0756 0.28758 41.4218 0.671266C41.7679 1.05495 41.9558 1.55557 41.9475 2.07226V9.16688L48.5252 2.58669C48.7108 2.40107 48.9312 2.25384 49.1737 2.15338C49.4162 2.05293 49.6762 2.00123 49.9387 2.00123C50.2012 2.00123 50.4611 2.05293 50.7036 2.15338C50.9461 2.25384 51.1665 2.40107 51.3521 2.58669C51.5377 2.7723 51.6849 2.99266 51.7854 3.23517C51.8859 3.47769 51.9376 3.73762 51.9376 4.00012C51.9376 4.26262 51.8859 4.52254 51.7854 4.76506C51.6849 5.00758 51.5377 5.22793 51.3521 5.41355L44.7719 11.9912H51.8665C52.3832 11.983 52.8838 12.1708 53.2675 12.517C53.6512 12.8631 53.8894 13.3419 53.9342 13.8567C53.9524 14.1299 53.9141 14.404 53.8219 14.6619C53.7297 14.9198 53.5854 15.1559 53.398 15.3557C53.2107 15.5554 52.9842 15.7145 52.7328 15.8231C52.4814 15.9317 52.2103 15.9874 51.9364 15.9868Z" fill="#F58700"/>
</svg>
